HIERARCHY
ROOT joint_Root
{
	OFFSET 0.0 0.0 0.0
	CHANNELS 6 Xposition Yposition Zposition Zrotation Xrotation Yrotation 
	JOINT Hips
	{
		OFFSET 4.5925 91.4895 -427.239
		CHANNELS 6 Xposition Yposition Zposition Zrotation Xrotation Yrotation 
		JOINT Spine
		{
			OFFSET 15.7357 0.0 0.0
			CHANNELS 6 Xposition Yposition Zposition Zrotation Xrotation Yrotation 
			JOINT Chest
			{
				OFFSET 8.98455 -0.406207 0.0
				CHANNELS 6 Xposition Yposition Zposition Zrotation Xrotation Yrotation 
				JOINT Neck
				{
					OFFSET 16.3773 0.0 0.0
					CHANNELS 6 Xposition Yposition Zposition Zrotation Xrotation Yrotation 
					JOINT Head
					{
						OFFSET 6.45672 0.0 0.0
						CHANNELS 6 Xposition Yposition Zposition Zrotation Xrotation Yrotation 
						End Site
						{
							OFFSET 0.0 0.0 0.0
						}
					}
				}
				JOINT Shoulder_L
				{
					OFFSET 12.9942 -0.242716 4.98039
					CHANNELS 6 Xposition Yposition Zposition Zrotation Xrotation Yrotation 
					JOINT UpperArm_L
					{
						OFFSET 5.34809 0.0 0.0
						CHANNELS 6 Xposition Yposition Zposition Zrotation Xrotation Yrotation 
						JOINT LowerArm_L
						{
							OFFSET 24.3286 1.87007e-05 0.0
							CHANNELS 6 Xposition Yposition Zposition Zrotation Xrotation Yrotation 
							JOINT Hand_L
							{
								OFFSET 22.2916 0.0 0.0
								CHANNELS 6 Xposition Yposition Zposition Zrotation Xrotation Yrotation 
								End Site
								{
									OFFSET 0.0 0.0 0.0
								}
							}
						}
					}
				}
				JOINT Shoulder_R
				{
					OFFSET 12.9945 -0.242716 -4.98039
					CHANNELS 6 Xposition Yposition Zposition Zrotation Xrotation Yrotation 
					JOINT UpperArm_R
					{
						OFFSET -5.34813 0.0 0.0
						CHANNELS 6 Xposition Yposition Zposition Zrotation Xrotation Yrotation 
						JOINT LowerArm_R
						{
							OFFSET -24.3289 0.000322201 0.0
							CHANNELS 6 Xposition Yposition Zposition Zrotation Xrotation Yrotation 
							JOINT Hand_R
							{
								OFFSET -22.2915 -0.000108084 0.0
								CHANNELS 6 Xposition Yposition Zposition Zrotation Xrotation Yrotation 
								End Site
								{
									OFFSET 0.0 0.0 0.0
								}
							}
						}
					}
				}
			}
		}
		JOINT UpperLeg_L
		{
			OFFSET -2.19248 -6.46944 0.0
			CHANNELS 6 Xposition Yposition Zposition Zrotation Xrotation Yrotation 
			JOINT LowerLeg_L
			{
				OFFSET 39.0811 0.0 -1.23785e-05
				CHANNELS 6 Xposition Yposition Zposition Zrotation Xrotation Yrotation 
				JOINT Foot_L
				{
					OFFSET 40.9854 0.0 -1.26872e-05
					CHANNELS 6 Xposition Yposition Zposition Zrotation Xrotation Yrotation 
					JOINT Toes_L
					{
						OFFSET 11.7543 0.0 0.0
						CHANNELS 6 Xposition Yposition Zposition Zrotation Xrotation Yrotation 
						End Site
						{
							OFFSET 0.0 0.0 0.0
						}
					}
				}
			}
		}
		JOINT UpperLeg_R
		{
			OFFSET -2.19251 6.46944 0.0
			CHANNELS 6 Xposition Yposition Zposition Zrotation Xrotation Yrotation 
			JOINT LowerLeg_R
			{
				OFFSET -39.0811 -0.00228153 -0.0401928
				CHANNELS 6 Xposition Yposition Zposition Zrotation Xrotation Yrotation 
				JOINT Foot_R
				{
					OFFSET -40.9854 0.0 0.0
					CHANNELS 6 Xposition Yposition Zposition Zrotation Xrotation Yrotation 
					JOINT Toes_R
					{
						OFFSET -11.7543 0.0 0.0
						CHANNELS 6 Xposition Yposition Zposition Zrotation Xrotation Yrotation 
						End Site
						{
							OFFSET 0.0 0.0 0.0
						}
					}
				}
			}
		}
	}
}
MOTION
Frames:	7
Frame Time:	0.0333333
0.000000 0.000000 0.000000 0.000000 0.000000 -0.000000 107.052000 86.186100 159.359000 104.601000 -54.504100 11.524200 15.735700 0.000005 -0.000001 112.547000 83.999200 -113.348000 8.984550 -0.406207 -0.000000 3.360570 4.627350 -1.737250 16.377300 -0.000001 -0.000001 -0.289678 -13.835700 4.599570 6.456720 -0.000001 -0.000000 -4.255120 -22.034500 9.913970 12.994200 -0.242716 4.980390 -91.232300 3.528990 -70.738300 5.348090 -0.000007 -0.000001 -74.844700 20.750800 10.522900 24.328600 0.000019 0.000005 0.000045 35.872000 -0.000004 22.291600 -0.000001 0.000005 1.292790 5.044900 6.356960 12.994500 -0.242716 -4.980390 88.864800 9.338780 -83.037700 -5.348130 -0.000001 -0.000004 -49.272500 41.150700 -40.105500 -24.328900 0.000322 -0.000009 -0.187020 -0.044295 -76.465000 -22.291500 -0.000108 -0.000004 20.279100 5.515370 -7.165940 -2.192480 -6.469440 -0.000000 176.043000 -2.343940 -32.510300 39.081100 -0.000007 -0.000012 -0.048006 0.053359 41.978700 40.985400 -0.000006 -0.000013 -2.340850 7.734330 -60.318900 11.754300 -0.000000 0.000003 -0.000001 -0.000014 -16.578000 -2.192510 6.469440 -0.000001 175.113000 0.636195 -171.300000 -39.081100 -0.002282 -0.040193 0.025116 -0.024778 41.395300 -40.985400 0.000008 0.000006 26.406300 24.126800 -67.438600 -11.754300 -0.000006 -0.000006 -0.198297 -0.642268 -44.088200
0.000000 0.000000 0.000000 0.000000 0.000000 -0.000000 103.225000 85.428400 162.933000 107.442000 -57.454200 17.012500 15.735700 0.000005 -0.000001 114.432000 82.931900 -115.747000 8.984550 -0.406207 -0.000000 5.194620 5.864120 -2.893920 16.377300 -0.000001 -0.000001 0.115368 -13.584400 4.617700 6.456720 -0.000001 -0.000000 -3.998530 -22.279200 10.742700 12.994200 -0.242716 4.980390 -91.639600 4.584250 -70.296400 5.348090 -0.000007 -0.000001 -71.438800 21.684400 7.868440 24.328600 0.000019 0.000005 1.396740 33.982400 -2.499730 22.291600 -0.000001 0.000005 5.136060 5.090160 5.347230 12.994500 -0.242716 -4.980390 88.846900 9.924310 -83.338700 -5.348130 -0.000001 -0.000004 -50.012500 41.476700 -35.838200 -24.328900 0.000322 -0.000009 -0.682467 -0.168360 -76.112000 -22.291500 -0.000108 -0.000004 20.364500 5.547210 -8.573880 -2.192480 -6.469440 -0.000000 175.562000 -1.402290 -28.316200 39.081100 -0.000007 -0.000012 -0.235266 0.214472 47.647800 40.985400 -0.000006 -0.000013 -2.654820 4.503870 -67.551400 11.754300 -0.000000 0.000003 -0.000094 -0.000980 -16.615200 -2.192510 6.469440 -0.000001 172.703000 -1.101540 -173.428000 -39.081100 -0.002282 -0.040193 -0.019546 0.018028 51.650200 -40.985400 0.000008 0.000006 14.610500 26.940900 -54.878100 -11.754300 -0.000006 -0.000006 -0.177713 -0.606736 -42.423200
0.000000 0.000000 0.000000 0.000000 0.000000 -0.000000 100.091000 84.939400 165.769000 110.592000 -61.257700 21.336300 15.735700 0.000005 -0.000001 115.830000 82.439500 -117.454000 8.984550 -0.406207 -0.000000 5.970820 6.596460 -3.592420 16.377300 -0.000001 -0.000001 0.283986 -12.561500 4.478970 6.456720 -0.000001 -0.000000 -3.831760 -21.333700 9.553760 12.994200 -0.242716 4.980390 -92.168400 5.812020 -69.499500 5.348090 -0.000007 -0.000001 -67.953800 22.166000 4.465750 24.328600 0.000019 0.000005 3.121730 29.555000 -6.312950 22.291600 -0.000001 0.000005 8.075350 5.130760 4.402450 12.994500 -0.242716 -4.980390 89.011300 9.615120 -84.100900 -5.348130 -0.000001 -0.000004 -50.646300 42.856900 -34.381100 -24.328900 0.000322 -0.000009 -1.543660 -0.599748 -68.808000 -22.291500 -0.000108 -0.000004 20.423500 5.562110 -9.293060 -2.192480 -6.469440 -0.000000 174.819000 -4.761910 -24.953200 39.081100 -0.000007 -0.000012 -0.306976 0.252625 50.548200 40.985400 -0.000006 -0.000013 -2.185800 3.401380 -72.625900 11.754300 -0.000000 0.000003 -0.000239 -0.002154 -16.658400 -2.192510 6.469440 -0.000001 170.880000 -3.727750 179.721000 -39.081100 -0.002282 -0.040193 -0.001885 0.002650 62.401000 -40.985400 0.000008 0.000006 -4.241930 22.908600 -36.038800 -11.754300 -0.000006 -0.000006 -0.060657 -0.333903 -30.364800
0.000000 0.000000 0.000000 0.000000 0.000000 -0.000000 97.229100 84.960600 167.735000 110.448000 -63.321000 21.800000 15.735700 0.000005 -0.000001 111.422000 82.736400 -112.855000 8.984550 -0.406207 -0.000000 5.845370 5.316400 -3.135890 16.377300 -0.000001 -0.000001 0.405358 -11.769100 3.858090 6.456720 -0.000001 -0.000000 -3.201710 -19.765400 8.392290 12.994200 -0.242716 4.980390 -92.521000 6.717010 -69.372800 5.348090 -0.000007 -0.000001 -65.098900 22.054300 1.107630 24.328600 0.000019 0.000005 4.260010 25.024800 -9.988960 22.291600 -0.000001 0.000005 10.591800 5.134570 4.309060 12.994500 -0.242716 -4.980390 89.069500 9.313470 -84.269000 -5.348130 -0.000001 -0.000004 -49.136600 45.704500 -36.693500 -24.328900 0.000322 -0.000009 -1.911080 -1.308200 -55.547900 -22.291500 -0.000108 -0.000004 19.975100 5.532320 -7.874730 -2.192480 -6.469440 -0.000000 175.619000 -7.283020 -21.829100 39.081100 -0.000007 -0.000012 -0.359877 0.291352 51.007600 40.985400 -0.000006 -0.000013 -1.706350 3.775140 -75.763300 11.754300 -0.000000 0.000003 -0.000302 -0.002612 -16.674900 -2.192510 6.469440 -0.000001 170.814000 -2.181110 172.873000 -39.081100 -0.002282 -0.040193 0.148158 -0.051170 70.568800 -40.985400 0.000008 0.000006 -10.728700 11.509300 -28.785600 -11.754300 -0.000006 -0.000006 -0.024135 -0.189201 -24.311900
0.000000 0.000000 0.000000 0.000000 0.000000 -0.000000 94.087900 85.901700 169.190000 108.378000 -63.910000 20.154600 15.735700 0.000005 -0.000001 103.478000 83.153200 -104.563000 8.984550 -0.406207 -0.000000 5.588560 3.204700 -2.324170 16.377300 -0.000001 -0.000001 0.644560 -11.513300 3.402220 6.456720 -0.000001 -0.000000 -2.792010 -18.642100 7.556990 12.994200 -0.242716 4.980390 -92.419900 6.780270 -70.305700 5.348090 -0.000007 -0.000001 -62.903100 22.270300 -3.396630 24.328600 0.000019 0.000005 4.658640 22.252500 -12.144600 22.291600 -0.000001 0.000005 12.947500 5.133670 4.330920 12.994500 -0.242716 -4.980390 89.020000 9.571680 -84.126400 -5.348130 -0.000001 -0.000004 -48.650300 47.378700 -38.250000 -24.328900 0.000322 -0.000009 1.084220 1.300010 -40.233900 -22.291500 -0.000108 -0.000004 16.890500 5.436140 -4.082790 -2.192480 -6.469440 -0.000000 177.023000 -7.534380 -17.200100 39.081100 -0.000007 -0.000012 -0.358993 0.326344 47.728300 40.985400 -0.000006 -0.000013 -1.959460 3.794690 -76.868500 11.754300 -0.000000 0.000003 -0.000318 -0.002728 -16.679000 -2.192510 6.469440 -0.000001 172.621000 2.308280 168.709000 -39.081100 -0.002282 -0.040193 0.136358 -0.035249 75.191600 -40.985400 0.000008 0.000006 -1.460220 7.297210 -40.726600 -11.754300 -0.000006 -0.000006 -0.022878 -0.182738 -24.044900
0.000000 0.000000 0.000000 0.000000 0.000000 -0.000000 91.008400 87.130700 170.350000 106.261000 -64.249200 18.350700 15.735700 0.000005 -0.000001 96.829400 83.381400 -97.486100 8.984550 -0.406207 -0.000000 5.388350 1.584160 -1.386470 16.377300 -0.000001 -0.000001 0.829837 -11.910200 3.081180 6.456720 -0.000001 -0.000000 -2.558450 -18.200900 7.109650 12.994200 -0.242716 4.980390 -92.050500 6.215530 -71.702400 5.348090 -0.000007 -0.000001 -60.745600 23.556600 -9.535610 24.328600 0.000019 0.000005 4.663470 21.337800 -12.635700 22.291600 -0.000001 0.000005 14.221900 5.142280 4.126930 12.994500 -0.242716 -4.980390 88.974100 9.860940 -84.030700 -5.348130 -0.000001 -0.000004 -53.136200 45.155700 -33.669800 -24.328900 0.000322 -0.000009 4.892150 9.234080 -28.137800 -22.291500 -0.000108 -0.000004 14.100000 5.297160 0.162747 -2.192480 -6.469440 -0.000000 178.465000 -7.724780 -11.907300 39.081100 -0.000007 -0.000012 -0.319539 0.348887 42.486600 40.985400 -0.000006 -0.000013 -2.377470 3.938220 -76.736600 11.754300 -0.000000 0.000003 -0.000240 -0.002158 -16.658500 -2.192510 6.469440 -0.000001 174.579000 6.760690 164.834000 -39.081100 -0.002282 -0.040193 0.139998 -0.035082 75.635000 -40.985400 0.000008 0.000006 1.834430 3.442340 -47.137300 -11.754300 -0.000006 -0.000006 -0.022564 -0.181097 -23.977200
0.000000 0.000000 0.000000 0.000000 0.000000 -0.000000 88.164000 88.436500 171.360000 104.939000 -64.366300 16.937400 15.735700 0.000005 -0.000001 92.416400 83.512900 -92.759300 8.984550 -0.406207 -0.000000 5.198490 0.553522 -0.710147 16.377300 -0.000001 -0.000001 0.799589 -12.557700 3.191620 6.456720 -0.000001 -0.000000 -2.645350 -18.397300 7.310830 12.994200 -0.242716 4.980390 -91.597200 5.249650 -73.052500 5.348090 -0.000007 -0.000001 -57.838800 25.129500 -17.249300 24.328600 0.000019 0.000005 4.766410 21.515600 -12.808400 22.291600 -0.000001 0.000005 13.657100 5.145570 4.048630 12.994500 -0.242716 -4.980390 88.887600 9.883300 -83.545500 -5.348130 -0.000001 -0.000004 -59.623800 38.145300 -25.528700 -24.328900 0.000322 -0.000009 5.456020 14.858100 -20.434200 -22.291500 -0.000108 -0.000004 15.301600 5.210430 2.448330 -2.192480 -6.469440 -0.000000 178.956000 -7.340900 -7.750180 39.081100 -0.000007 -0.000012 0.004804 -0.006217 37.688000 40.985400 -0.000006 -0.000013 -0.135544 2.869460 -74.561000 11.754300 -0.000000 0.000003 -1.636540 -2.084170 -17.250400 -2.192510 6.469440 -0.000001 176.346000 10.325900 161.097000 -39.081100 -0.002282 -0.040193 0.127219 -0.038333 72.840900 -40.985400 0.000008 0.000006 3.334670 2.963510 -51.219400 -11.754300 -0.000006 -0.000006 -0.021291 -0.174335 -23.698300
